<svg xmlns="http://www.w3.org/2000/svg" width="0" height="0" class="hidden">
    <symbol viewBox="0 0 16 16" xmlns="http://www.w3.org/2000/svg" id="check-16-16">
        <path d="M11.7071 6.70711C12.0976 6.31658 12.0976 5.68342 11.7071 5.29289C11.3166 4.90237 10.6834 4.90237 10.2929 5.29289L7 8.58579L5.70711 7.29289C5.31658 6.90237 4.68342 6.90237 4.29289 7.29289C3.90237 7.68342 3.90237 8.31658 4.29289 8.70711L6.29289 10.7071C6.68342 11.0976 7.31658 11.0976 7.70711 10.7071L11.7071 6.70711Z" fill="#2CBE15"/>
        <path fill-rule="evenodd" clip-rule="evenodd" d="M7 0C3.13401 0 0 3.13401 0 7V9C0 12.866 3.13401 16 7 16H9C12.866 16 16 12.866 16 9V7C16 3.13401 12.866 0 9 0H7ZM2 7C2 4.23858 4.23858 2 7 2H9C11.7614 2 14 4.23858 14 7V9C14 11.7614 11.7614 14 9 14H7C4.23858 14 2 11.7614 2 9V7Z" fill="#2CBE15"/>
    </symbol>
</svg>