<svg xmlns="http://www.w3.org/2000/svg" width="0" height="0" class="hidden">
    <symbol viewBox="0 0 32 32" xmlns="http://www.w3.org/2000/svg" id="orders-32-32">
        <path fill-rule="evenodd" clip-rule="evenodd" d="M0 25V11.9943C0 11.1633 0.129477 10.3374 0.383771 9.54628L1.89074 4.85794C2.82123 1.96306 5.5142 0 8.55494 0H23.4451C26.4858 0 29.1788 1.96307 30.1093 4.85794L31.6162 9.54628L29.9999 10.0658L31.6162 9.54628C31.8705 10.3374 32 11.1633 32 11.9943V25C32 28.866 28.866 32 25 32H7C3.13401 32 0 28.866 0 25ZM27.2532 5.77597L28.6109 10H3.38909L4.74682 5.77596C5.27853 4.12175 6.81737 3 8.55494 3H23.4451C25.1826 3 26.7215 4.12175 27.2532 5.77597ZM29 13H3V25C3 27.2091 4.79086 29 7 29H25C27.2091 29 29 27.2091 29 25V13ZM11.8071 14.9459C10.9786 14.9459 10.3071 15.6174 10.3071 16.4459C10.3071 17.2743 10.9786 17.9459 11.8071 17.9459H20.1607C20.9892 17.9459 21.6607 17.2743 21.6607 16.4459C21.6607 15.6174 20.9892 14.9459 20.1607 14.9459H11.8071Z" />
    </symbol>
</svg>