<svg xmlns="http://www.w3.org/2000/svg" width="0" height="0" class="hidden">
	<symbol viewBox="0 0 16 16" xmlns="http://www.w3.org/2000/svg" id="description-16-16">
		<path fill-rule="evenodd" clip-rule="evenodd" d="M0 7C0 3.13401 3.13401 0 7 0H9C12.866 0 16 3.13401 16 7V9C16 12.866 12.866 16 9 16H7C3.13401 16 0 12.866 0 9V7ZM7 2C4.23858 2 2 4.23858 2 7V9C2 11.7614 4.23858 14 7 14H9C11.7614 14 14 11.7614 14 9V7C14 4.23858 11.7614 2 9 2H7ZM8 12C8.55229 12 9 11.5523 9 11V8C9 7.44772 8.55229 7 8 7C7.44772 7 7 7.44772 7 8V11C7 11.5523 7.44772 12 8 12ZM8 6C7.44772 6 7 5.55228 7 5C7 4.44772 7.44772 4 8 4C8.55229 4 9 4.44772 9 5C9 5.55228 8.55229 6 8 6Z"/>
	</symbol>
</svg>