<svg xmlns="http://www.w3.org/2000/svg" width="0" height="0" class="hidden">
	<symbol viewBox="0 0 24 24" xmlns="http://www.w3.org/2000/svg" id="delete-24-24">
		<path fill-rule="evenodd" clip-rule="evenodd" d="M10.25 4C8.94755 4 8 5.10645 8 6.33333V8H6C5.44772 8 5 8.44772 5 9C5 9.55228 5.44772 10 6 10H6.06639L6.60928 17.8966L7.60671 17.828L6.60928 17.8966C6.69603 19.1583 7.81008 20 8.97924 20H15.0208C16.1899 20 17.304 19.1583 17.3907 17.8966L16.3931 17.828L17.3907 17.8966L17.9336 10H18C18.5523 10 19 9.55228 19 9C19 8.44772 18.5523 8 18 8H16V6.33333C16 5.10645 15.0524 4 13.75 4H10.25ZM14 8V6.33333C14 6.08747 13.8283 6 13.75 6H10.25C10.1717 6 10 6.08747 10 6.33333V8H14ZM8.07111 10H15.9289L15.3954 17.7594C15.393 17.7953 15.3754 17.8471 15.3128 17.9006C15.249 17.9551 15.1481 18 15.0208 18H8.97924C8.85192 18 8.75102 17.9551 8.68722 17.9006C8.62461 17.8471 8.60704 17.7953 8.60457 17.7594L8.07111 10Z"/>
	</symbol>
	<svg viewBox="0 0 20 20" fill="none" xmlns="http://www.w3.org/2000/svg" id="delete-20-20">
		<path d="M2 6H18" stroke-width="2" stroke-linecap="round"/>
		<path d="M7 6V4C7 2.89543 7.89543 2 9 2H11C12.1046 2 13 2.89543 13 4V6" stroke-width="2" stroke-linecap="round"/>
		<path d="M4 9V16C4 17.1046 4.89543 18 6 18H14C15.1046 18 16 17.1046 16 16V9" stroke-width="2" stroke-linecap="round"/>
	</svg>
</svg>